<svg width="38" height="15" viewBox="0 0 38 15" fill="none" xmlns="http://www.w3.org/2000/svg" aria-label="pciDss" role="img"><title id="pciDss">Payment Card Industry Data Security Standard</title><path d="M25.5444 8.4516L25.9102 8.56136C25.8858 8.66502 25.8492 8.75038 25.7944 8.81746C25.7395 8.88453 25.6785 8.93941 25.5992 8.96989C25.52 9.00648 25.4224 9.02477 25.3005 9.02477C25.1541 9.02477 25.0383 9.00648 24.9407 8.9638C24.8492 8.92111 24.77 8.84794 24.7029 8.73819C24.6358 8.63453 24.5992 8.49428 24.5992 8.32965C24.5992 8.11014 24.6602 7.93941 24.7761 7.81745C24.8919 7.6955 25.0627 7.64062 25.2761 7.64062C25.4468 7.64062 25.5749 7.67721 25.6724 7.74428C25.77 7.81136 25.8431 7.91501 25.8858 8.06136L25.52 8.14063C25.5078 8.09794 25.4956 8.06745 25.4773 8.04916C25.4529 8.01867 25.4285 7.99428 25.3919 7.97599C25.3553 7.9577 25.3188 7.9516 25.2822 7.9516C25.1907 7.9516 25.1175 7.98819 25.0688 8.06745C25.0322 8.12233 25.0139 8.2138 25.0139 8.32965C25.0139 8.47599 25.0383 8.57965 25.081 8.63453C25.1236 8.68941 25.1907 8.71989 25.27 8.71989C25.3492 8.71989 25.4102 8.6955 25.4468 8.65282C25.4956 8.59794 25.5261 8.53697 25.5444 8.4516Z" fill="#225E63"></path><path d="M26.0569 8.32733C26.0569 8.10781 26.1179 7.93708 26.2398 7.81513C26.3618 7.69318 26.5325 7.6322 26.752 7.6322C26.9776 7.6322 27.1483 7.69318 27.2703 7.80903C27.3923 7.93098 27.4532 8.09562 27.4532 8.31513C27.4532 8.47367 27.4288 8.60171 27.374 8.69928C27.3191 8.79684 27.2459 8.87611 27.1423 8.93098C27.0447 8.98586 26.9166 9.01635 26.7703 9.01635C26.6179 9.01635 26.4959 8.99196 26.3923 8.94318C26.2947 8.8944 26.2154 8.82123 26.1483 8.71147C26.0813 8.60172 26.0569 8.48586 26.0569 8.32733ZM26.4715 8.32733C26.4715 8.46147 26.4959 8.55903 26.5447 8.62001C26.5935 8.68098 26.6605 8.71147 26.752 8.71147C26.8435 8.71147 26.9105 8.68098 26.9593 8.62611C27.0081 8.56513 27.0325 8.46147 27.0325 8.31513C27.0325 8.18708 27.0081 8.09562 26.9532 8.04074C26.9044 7.97976 26.8313 7.95537 26.7459 7.95537C26.6605 7.95537 26.5935 7.98586 26.5447 8.04684C26.4959 8.09562 26.4715 8.19318 26.4715 8.32733Z" fill="#225E63"></path><path d="M27.6676 7.6554H28.2103L28.4176 8.47247L28.6249 7.6554H29.1676V8.99686H28.8261V7.97247L28.5639 8.99686H28.2591L27.9969 7.97247V8.99686H27.6554V7.6554H27.6676Z" fill="#225E63"></path><path d="M29.4349 7.6554H30.124C30.2764 7.6554 30.3862 7.69198 30.4593 7.76515C30.5325 7.83832 30.5691 7.93588 30.5691 8.07003C30.5691 8.20418 30.5264 8.31393 30.4471 8.3871C30.3679 8.46637 30.2398 8.50296 30.0752 8.50296H29.8496V9.00296H29.4349V7.6554ZM29.8496 8.22857H29.9532C30.0325 8.22857 30.0874 8.21637 30.124 8.18588C30.1544 8.15539 30.1727 8.12491 30.1727 8.08222C30.1727 8.03954 30.1605 8.00296 30.1301 7.97247C30.0996 7.94198 30.0508 7.92979 29.9715 7.92979H29.8557V8.22857H29.8496Z" fill="#225E63"></path><path d="M30.7874 7.6554H31.202V8.66759H31.8483V8.99686H30.7874V7.6554Z" fill="#225E63"></path><path d="M32.0577 7.6554H32.4724V8.99686H32.0577V7.6554Z" fill="#225E63"></path><path d="M33.5935 8.771H33.124L33.057 8.99051H32.6362L33.1423 7.64905H33.5935L34.0996 8.99051H33.6667L33.5935 8.771ZM33.5082 8.48441L33.3618 8.00271L33.2155 8.48441H33.5082Z" fill="#225E63"></path><path d="M34.2263 7.6554H34.6105L35.1166 8.3993V7.6554H35.5068V8.99686H35.1166L34.6166 8.25905V8.99686H34.2263V7.6554Z" fill="#225E63"></path><path d="M35.6924 7.6554H36.9546V7.98466H36.5338V8.99686H36.1192V7.98466H35.6985V7.6554H35.6924Z" fill="#225E63"></path><path d="M20.5558 9.70122L21.757 9.32317L21.3668 8.45732C21.0802 8.81707 20.7936 9.28049 20.5558 9.70122ZM20.1473 5.7439L17.7936 0.5L0.56189 1.47561L5.33628 14.5L14.5253 11.6037C13.9399 10.7622 13.7265 9.7622 14.4034 9.27439C15.1595 8.72561 16.2997 9.35976 17.0253 10.2561C17.7265 9.08537 19.696 6.35976 20.1473 5.7439Z" fill="#225E63"></path><path d="M17.258 4.2952C17.9775 4.2952 18.5629 3.74642 18.5629 3.06349C18.5629 2.38057 17.9775 1.83179 17.258 1.83179C16.5385 1.83179 15.9531 2.38057 15.9531 3.06349C15.9531 3.74032 16.5385 4.2952 17.258 4.2952ZM16.1909 4.82569H18.3251V10.405H16.1909V4.82569Z" fill="#FEFEFE"></path><path d="M15.1376 6.45378C15.1559 6.45988 15.1681 6.45378 15.1681 6.43549V5.02086C15.1681 5.00256 15.1559 4.98427 15.1376 4.97208C15.1376 4.97208 14.8571 4.78915 14.0034 4.74037C13.9608 4.71598 13.2108 4.70988 13.0095 4.74037C9.89979 4.99037 9.78394 7.24037 9.78394 7.33793V7.88671C9.78394 7.95378 9.78394 10.2526 13.0095 10.4538C13.3266 10.4782 13.9425 10.4538 14.0034 10.4538C14.7474 10.4538 15.2595 10.2282 15.2595 10.2282C15.2778 10.2221 15.29 10.2038 15.29 10.1855V8.86232C15.29 8.84403 15.2778 8.83793 15.2656 8.85012C15.2656 8.85012 15.0339 9.03305 14.0217 9.13671C13.7352 9.1672 13.5949 9.155 13.4913 9.13671C12.0522 8.89281 11.9852 7.84403 11.9852 7.84403C11.9852 7.82573 11.9791 7.79525 11.9791 7.78305V7.38061C11.9791 7.36232 11.9791 7.33183 11.9852 7.31964C11.9852 7.31964 12.0827 6.19159 13.4913 6.06964H14.0217C14.6376 6.14891 15.1376 6.45378 15.1376 6.45378Z" fill="#FEFEFE"></path><path d="M3.85669 10.3866C3.85669 10.4048 3.86888 10.417 3.88718 10.417H5.96645C5.98474 10.417 5.99693 10.4048 5.99693 10.3866V8.76461C5.99693 8.74631 6.00913 8.73412 6.02742 8.73412C6.02742 8.73412 9.35059 8.97192 9.35059 6.74631C9.35059 4.98412 7.26523 4.79509 6.5823 4.82558C6.57011 4.82558 3.88718 4.82558 3.88718 4.82558C3.86888 4.82558 3.85669 4.83778 3.85669 4.85607V10.3866ZM5.96035 7.49631V6.03899H6.47254C6.47254 6.03899 7.21035 6.06948 7.27132 6.57558C7.28352 6.61217 7.28352 6.86217 7.27132 6.87436C7.17376 7.46582 6.53352 7.49631 6.53352 7.49631H5.96035Z" fill="#FEFEFE"></path><path d="M17.3176 13.089C17.4883 13.089 17.6224 13.089 17.842 12.9915C18.5981 12.5951 21.1529 6.35733 23.8481 4.4366C23.8663 4.4244 23.8846 4.40611 23.8968 4.38782C23.9151 4.36343 23.9151 4.33904 23.9151 4.33904C23.9151 4.33904 23.9151 4.21099 23.5188 4.21099C21.1224 4.14392 18.6285 9.17441 17.3176 11.1622C17.2993 11.1866 17.2139 11.1622 17.2139 11.1622C17.2139 11.1622 16.3359 10.1256 15.5737 9.72928C15.5554 9.72319 15.47 9.6927 15.3785 9.6988C15.3176 9.6988 14.9639 9.77197 14.7993 9.9427C14.6042 10.15 14.6103 10.2659 14.6103 10.5159C14.6103 10.5342 14.6224 10.6195 14.6468 10.6622C14.8359 10.9915 15.6834 12.1622 16.3846 12.8086C16.4883 12.8878 16.6529 13.089 17.3176 13.089Z" fill="#2BBC5D"></path><path d="M24.5559 2.55334H26.5498C26.9462 2.55334 27.2632 2.60822 27.501 2.71188C27.7449 2.82164 27.9462 2.97408 28.0986 3.1692C28.2571 3.37042 28.373 3.60213 28.4401 3.86432C28.5132 4.12652 28.5498 4.407 28.5498 4.70578C28.5498 5.1692 28.4949 5.52895 28.3913 5.78505C28.2876 6.04115 28.1413 6.25456 27.9523 6.43139C27.7632 6.60213 27.562 6.71798 27.3486 6.77895C27.0559 6.85822 26.7876 6.89481 26.5498 6.89481H24.5559V2.55334ZM25.8974 3.53505V5.907H26.2266C26.5071 5.907 26.7083 5.87652 26.8242 5.81554C26.9401 5.75456 27.0376 5.64481 27.1047 5.49237C27.1718 5.33993 27.2083 5.08383 27.2083 4.73627C27.2083 4.27286 27.1352 3.96188 26.9827 3.79115C26.8303 3.62042 26.5864 3.53505 26.2327 3.53505H25.8974Z" fill="#225E63"></path><path d="M28.9225 5.46327L30.203 5.384C30.2335 5.59132 30.2883 5.74985 30.3737 5.85961C30.5139 6.03644 30.7091 6.1218 30.9652 6.1218C31.1542 6.1218 31.3066 6.07912 31.4103 5.98766C31.5139 5.89619 31.5688 5.79254 31.5688 5.67668C31.5688 5.56693 31.52 5.46327 31.4225 5.37181C31.3249 5.28034 31.0932 5.20107 30.7335 5.12181C30.142 4.98766 29.7274 4.81083 29.4713 4.59132C29.2152 4.3718 29.0932 4.09132 29.0932 3.74985C29.0932 3.52424 29.1603 3.31693 29.2883 3.11571C29.4164 2.91449 29.6115 2.76205 29.8737 2.6462C30.1359 2.53034 30.4896 2.47546 30.9408 2.47546C31.4957 2.47546 31.9225 2.57912 32.2091 2.78644C32.5018 2.99376 32.6725 3.32302 32.7274 3.77424L31.4591 3.84742C31.4225 3.65229 31.3554 3.51205 31.2457 3.42059C31.1359 3.32912 30.9896 3.28644 30.8005 3.28644C30.642 3.28644 30.5261 3.31693 30.4469 3.384C30.3676 3.45107 30.331 3.53034 30.331 3.6279C30.331 3.69498 30.3615 3.76205 30.4286 3.81693C30.4896 3.87181 30.642 3.92668 30.8798 3.97546C31.4652 4.10351 31.8859 4.23156 32.142 4.35961C32.3981 4.48766 32.581 4.65229 32.6969 4.84132C32.8127 5.03034 32.8676 5.24985 32.8676 5.48766C32.8676 5.76815 32.7883 6.02424 32.6359 6.25595C32.4835 6.49376 32.2639 6.67058 31.9896 6.79254C31.7152 6.91449 31.3615 6.97546 30.9408 6.97546C30.203 6.97546 29.6908 6.83522 29.4042 6.54863C29.1237 6.26205 28.9652 5.90229 28.9225 5.46327Z" fill="#225E63"></path><path d="M33.2081 5.46327L34.4886 5.384C34.5191 5.59132 34.574 5.74985 34.6593 5.85961C34.7996 6.03644 34.9947 6.1218 35.2508 6.1218C35.4398 6.1218 35.5923 6.07912 35.6959 5.98766C35.7996 5.89619 35.8545 5.79254 35.8545 5.67668C35.8545 5.56693 35.8057 5.46327 35.7081 5.37181C35.6106 5.28034 35.3789 5.20107 35.0191 5.12181C34.4276 4.98766 34.013 4.81083 33.7569 4.59132C33.5069 4.3718 33.3789 4.09132 33.3789 3.74985C33.3789 3.52424 33.4459 3.31693 33.574 3.11571C33.702 2.91449 33.8972 2.76205 34.1593 2.6462C34.4215 2.53034 34.7752 2.47546 35.2264 2.47546C35.7813 2.47546 36.2081 2.57912 36.4947 2.78644C36.7874 2.99376 36.9581 3.32302 37.013 3.77424L35.7447 3.84742C35.7081 3.65229 35.6411 3.51205 35.5313 3.42059C35.4215 3.32912 35.2752 3.28644 35.0862 3.28644C34.9276 3.28644 34.8118 3.31693 34.7325 3.384C34.6533 3.45107 34.6167 3.53034 34.6167 3.6279C34.6167 3.69498 34.6472 3.76205 34.7142 3.81693C34.7752 3.87181 34.9276 3.92668 35.1654 3.97546C35.7508 4.10351 36.1715 4.23156 36.4276 4.35961C36.6837 4.48766 36.8667 4.65229 36.9825 4.84132C37.0984 5.03034 37.1533 5.24985 37.1533 5.48766C37.1533 5.76815 37.074 6.02424 36.9215 6.25595C36.7691 6.49376 36.5496 6.67058 36.2752 6.79254C36.0008 6.91449 35.6472 6.97546 35.2264 6.97546C34.4886 6.97546 33.9764 6.83522 33.6898 6.54863C33.4032 6.26205 33.2447 5.90229 33.2081 5.46327Z" fill="#225E63"></path></svg>